<?xml version="1.0" encoding="UTF-8" standalone="no"?>
<svg viewBox="0 0 1024 1024" version="1.1" xmlns="http://www.w3.org/2000/svg">
	<path d="M 234.82227,62 C 140.55927,62 62.007813,138.31036 62.007812,234.81836 V 786.9375 c 0,94.264 76.307408,172.81836 172.816408,172.81836 h 552.12109 c 85.08383,0 154.52677,-60.31351 170.45508,-140.82422 0.35818,0.16066 0.8939,0.39561 1.23438,0.54883 1.12695,-584.66211 1.12695,-584.66211 1.12695,-584.66211 C 959.76172,140.55436 883.45236,62 786.94336,62 Z" fill="#00a0e9"/>
	<path d="m 471.59961,197.78516 c -15.71,0 -17.95508,13.46679 -17.95508,13.46679 v 89.77539 h -210.9707 v 38.1543 h 210.97265 v 62.84375 H 280.82812 v 33.66602 h 347.88086 c -11.222,42.643 -29.17695,83.04226 -49.37695,121.19726 -78.554,-26.933 -123.44022,-44.88823 -219.94922,-53.86523 -181.796,-17.956 -224.43887,83.04067 -231.17187,143.63867 -8.978,94.264 74.06486,170.57422 197.50586,170.57422 123.442,0 206.48311,-58.35414 285.03711,-152.61914 103.241,49.377 302.99286,134.66328 347.88086,154.86328 1.126,-142.518 -8.2e-4,0.001 2.24218,-141.39453 0,0 -242.39462,-74.06735 -294.01562,-89.77735 31.422,-53.865 58.35445,-116.7072 74.06445,-186.2832 H 556.88672 v -62.84375 h 224.43945 v -38.1543 H 556.88672 V 197.78516 Z M 283.07227,561.37695 c 83.042,0 159.35095,22.44389 249.12695,65.08789 -62.843,80.798 -139.15317,130.17383 -219.95117,130.17383 -130.175,0 -152.61877,-83.04298 -145.88477,-116.70898 6.733,-33.666 44.88799,-78.55274 116.70899,-78.55274 z" fill="#ffffff"/>
</svg>
