<?xml version="1.0" standalone="no"?><!DOCTYPE svg PUBLIC "-//W3C//DTD SVG 1.1//EN" "http://www.w3.org/Graphics/SVG/1.1/DTD/svg11.dtd"><svg t="1553753004558" class="icon" style="" viewBox="0 0 1350 1024" version="1.1" xmlns="http://www.w3.org/2000/svg" p-id="6515" xmlns:xlink="http://www.w3.org/1999/xlink" width="263.671875" height="200"><defs><style type="text/css"></style></defs><path d="M1274.553191 0H76.255319C31.62417 0 0 39.042723 0 83.652085v856.706724C0 984.957277 42.517787 1024 87.148936 1024h1187.404255c44.631149 0 76.255319-39.042723 76.25532-83.652085V83.652085C1350.808511 39.042723 1319.18434 0 1274.553191 0zM720.057191 577.80834c-10.043915 10.12017-25.567319 15.926468-42.594042 15.926469-17.124766 0-32.833362-5.937021-43.029787-16.198809L163.404255 98.042553h1034.893617L720.057191 577.80834z m-284.377872-67.475063L98.042553 860.595745V163.404255l337.636766 346.929022z m66.211404 67.061106l65.557788 66.396596c27.854979 28.051064 67.954383 44.140936 110.025532 44.140936 41.973106 0 81.876426-15.959149 109.469957-43.748766l64.490213-64.871489L1187.404255 925.957447H163.404255l338.486468-348.563064z m415.972766-64.925957L1252.765957 174.297872v686.297873L917.863489 512.468426z" fill="#ffffff" p-id="6516"></path></svg>