<?xml version="1.0" encoding="UTF-8" standalone="no"?>
<svg viewBox="0 0 1024 1024" version="1.1" xmlns="http://www.w3.org/2000/svg">
  <path transform="translate(-150, 0)" fill="#3bca72" d="m 662.58824,150.58823 c -231.90589,0 -421.64706,156.61177 -421.64706,349.36471 0,105.41177 57.22353,198.77647 146.07059,262.02353 7.52941,4.51765 12.04705,13.55294 12.04705,22.58824 0,3.01176 -1.50588,6.02352 -1.50588,9.03529 -7.52941,25.6 -18.07059,67.76471 -19.57647,70.77647 -1.50588,3.01177 -3.01176,7.52941 -3.01176,10.54118 0,7.52941 6.02353,15.05882 15.05882,15.05882 3.01176,0 6.02353,-1.50588 9.03529,-3.01176 l 93.36471,-52.70589 c 7.52941,-3.01176 15.05882,-6.02353 22.58824,-6.02353 4.51764,0 9.03529,1.50589 12.04705,3.01177 43.67059,12.04706 88.84706,19.57647 137.0353,19.57647 C 896,850.82353 1085.7412,694.21176 1085.7412,501.45882 1072.3482,277.3824 870.97254,153.84999 662.58824,150.58823 Z"/>
  <path transform="translate(-150, 0)" fill="#ffffff" d="m 548.14109,617.41181 c -3.0117,3.0117 -9.0353,3.0117 -13.5529,3.0117 -10.5412,0 -19.5765,-6.0235 -24.0941,-15.0588 l -3.0118,-3.0118 -76.8,-167.1529 c -1.5059,-3.0118 -1.5059,-3.0118 -1.5059,-6.0235 0,-7.5294 6.0236,-15.0589 15.0589,-15.0589 3.0117,0 6.0235,1.5059 9.0353,3.0118 l 90.3529,64.7529 c 6.0235,4.5177 15.0588,7.5295 22.5882,7.5295 4.5177,0 9.0353,-1.5059 15.0589,-3.0118 l 426.16461,-188.2353 c 30.1177,42.1647 0,0 30.1177,42.1647 l -487.90591,274.0706 z"/>
</svg>
