<?xml version="1.0" encoding="UTF-8" standalone="no"?>
<svg viewBox="0 0 1024 1024" version="1.1" xmlns="http://www.w3.org/2000/svg">

  <path fill="#e2432a" d="m 210.374,49.852 c -6.284,-17.708 -31.418,-17.708 -37.702,0 L 59.564,399.464 h 263.922 z"/>
  <path fill="#e2432a" d="m 851.326,49.852 c -6.284,-17.708 -31.418,-17.708 -37.702,0 l -113.11,349.612 h 263.922 z"/>
  <path fill="#fca326" d="M 59.56456,399.4645 512.00057,987.42851 16.148559,619.39851 C 2.4365591,609.11448 -3.2754409,591.4065 1.8665591,575.41249 Z"/>
  <path fill="#fc6d27" d="M 59.564559,399.4645 512,987.42799 323.486,399.464 Z"/>
  <path fill="#e2432a" d="M 323.48656,399.4645 512.00057,987.42851 700.51457,399.4645 Z"/>
  <path fill="#fc6d27" d="M 700.51456,399.4645 512.00056,987.42851 964.43653,399.4645 Z"/>
  <path fill="#fca326" d="M 1022.1345,575.41249 964.43654,399.4645 512.00057,987.42851 l 495.85193,-368.03 c 13.71,-10.28403 19.422,-27.99201 14.282,-43.98602 z"/>
</svg>
