<?xml version="1.0" standalone="no"?>
<svg viewBox="0 0 1024 1024" version="1.1" xmlns="http://www.w3.org/2000/svg">
	<path d="M1023.162182 641.303273c0-143.243636-143.243636-260.910545-306.944-260.910546-168.820364 0-306.944 117.666909-306.944 260.910546s133.003636 260.910545 306.944 260.910545c35.816727 0 71.633455-10.24 107.426909-20.456727l97.210182 56.273454-25.576728-92.090181c71.633455-56.273455 127.883636-127.906909 127.883637-204.637091z m-404.130909-46.056728c-20.456727 0-35.816727-15.36-35.816728-35.816727 0-15.336727 20.456727-35.816727 35.816728-35.816727 25.576727 0 46.056727 15.36 46.056727 35.816727-0.023273 15.36-20.48 35.816727-46.056727 35.816727z m194.397091 0c-15.336727 0-35.816727-15.36-35.816728-35.816727 0-15.336727 20.456727-35.816727 35.816728-35.816727 25.576727 0 46.056727 15.36 46.056727 35.816727 0 15.36-15.36 35.816727-46.056727 35.816727z m0 0" fill="#04AE0F"></path>
	<path d="M358.097455 104.122182c-199.517091 0-358.120727 133.026909-358.120728 306.967273 0 97.210182 56.273455 179.060364 143.243637 240.453818L107.426909 758.970182l127.906909-61.393455c46.033455 10.24 81.850182 20.456727 127.906909 20.456728h35.816728c-5.12-25.576727-10.216727-51.153455-10.216728-76.730182 0-158.580364 133.003636-286.510545 306.944-286.510546h35.816728C690.641455 211.549091 537.157818 104.122182 358.097455 104.122182z m-112.54691 240.453818c-25.576727 0-56.273455-15.36-56.273454-46.056727 0-25.6 25.6-46.056727 56.273454-46.056728 25.576727 0 46.056727 15.36 46.056728 46.056728-5.12 30.696727-20.456727 46.056727-46.056728 46.056727z m250.693819 0c-25.576727 0-56.273455-15.36-56.273455-46.056727 0-25.6 25.576727-46.056727 56.273455-46.056728 25.576727 0 46.056727 15.36 46.056727 46.056728-0.023273 30.696727-20.48 46.056727-46.056727 46.056727z m0 0" fill="#04AE0F"></path>
	<path d="m 619.03127,595.24654 c -20.45672,0 -35.81672,-15.36 -35.81672,-35.81672 0,-15.33673 20.45672,-35.81673 35.81672,-35.81673 25.57673,0 46.05673,15.36 46.05673,35.81673 -0.0233,15.36 -20.48,35.81672 -46.05673,35.81672 z m 194.39709,0 c -15.33672,0 -35.81672,-15.36 -35.81672,-35.81672 0,-15.33673 20.45672,-35.81673 35.81672,-35.81673 25.57673,0 46.05673,15.36 46.05673,35.81673 0,15.36 -15.36,35.81672 -46.05673,35.81672 z" fill="#FFFFFF" />
	<path d="m 245.55055,344.576 c -25.57673,0 -56.27346,-15.36 -56.27346,-46.05673 0,-25.6 25.6,-46.05672 56.27346,-46.05673 25.57672,0 46.05672,15.36 46.05672,46.05673 -5.12,30.69673 -20.45672,46.05673 -46.05672,46.05673 z m 250.69381,0 c -25.57672,0 -56.27345,-15.36 -56.27345,-46.05673 0,-25.6 25.57673,-46.05672 56.27345,-46.05673 25.57673,0 46.05673,15.36 46.05673,46.05673 -0.0233,30.69673 -20.48,46.05673 -46.05673,46.05673 z" fill="#FFFFFF" />
</svg>